<?xml version="1.0" standalone="no"?>
<!DOCTYPE svg PUBLIC "-//W3C//DTD SVG 20010904//EN"
 "http://www.w3.org/TR/2001/REC-SVG-20010904/DTD/svg10.dtd">
<svg version="1.0" xmlns="http://www.w3.org/2000/svg"
 width="1200.000000pt" height="1200.000000pt" viewBox="0 0 1200.000000 1200.000000"
 preserveAspectRatio="xMidYMid meet">

<g transform="translate(0.000000,1200.000000) scale(0.100000,-0.100000)"
fill="#000000" stroke="none">
<path d="M5958 9731 c-92 -47 -268 -155 -268 -163 0 -14 232 -349 238 -343 8
7 213 448 210 450 -2 1 -23 15 -47 30 -66 41 -94 46 -133 26z"/>
<path d="M6156 9568 c-18 -40 -68 -147 -110 -237 -42 -90 -76 -170 -74 -176 6
-24 553 -813 560 -807 11 12 448 820 448 828 0 8 -771 464 -784 464 -4 0 -22
-33 -40 -72z"/>
<path d="M4910 9121 l-715 -417 -3 -100 -2 -99 430 -525 c237 -289 439 -533
448 -542 16 -17 39 29 422 847 l405 866 22 -25 21 -25 12 30 c10 24 10 33 -5
56 l-18 26 -14 -26 c-7 -15 -15 -27 -17 -27 -2 0 -61 85 -132 190 -71 104
-131 189 -134 189 -3 0 -327 -188 -720 -418z"/>
<path d="M6801 8718 l-234 -431 -19 23 c-20 25 -20 25 -37 -7 -9 -19 -8 -28 5
-49 l17 -26 15 27 c7 15 18 23 22 19 5 -5 207 -299 450 -654 243 -355 447
-651 454 -658 10 -10 45 48 174 285 l162 297 -2 579 -3 580 -375 219 c-206
121 -379 222 -385 224 -5 2 -115 -191 -244 -428z"/>
<path d="M5530 8231 c-222 -474 -406 -861 -409 -861 -4 0 -12 10 -20 22 l-13
22 -15 -27 c-7 -15 -15 -27 -17 -27 -2 0 -82 96 -178 213 -96 116 -290 353
-431 525 l-257 313 0 -913 0 -913 196 -113 c108 -63 199 -110 204 -105 4 4
109 227 235 496 125 268 230 487 234 487 3 0 12 -10 20 -22 l13 -22 15 28 c19
35 -10 66 292 -304 133 -162 245 -296 249 -297 7 -2 818 1484 836 1530 7 20
-27 75 -258 412 -147 215 -273 396 -280 403 -10 11 -88 -147 -416 -847z"/>
<path d="M6503 8168 c-17 -29 -200 -366 -408 -748 -207 -382 -384 -706 -393
-719 l-15 -25 -18 22 -17 22 -19 -24 -18 -24 -255 314 c-140 172 -258 313
-261 313 -7 1 -461 -970 -457 -975 10 -9 589 -344 596 -344 4 0 87 148 185
328 98 180 182 334 187 342 7 12 12 11 30 -5 22 -19 30 -16 44 20 5 14 -16 38
371 -435 191 -234 353 -431 359 -438 10 -10 75 24 322 168 l309 180 192 353
c106 193 197 361 204 371 11 20 12 19 30 -3 l18 -22 13 20 c7 12 16 21 19 21
4 0 55 -71 114 -157 60 -87 110 -160 111 -162 2 -2 17 2 34 9 l30 12 0 416 c0
228 -2 413 -4 411 -2 -2 -65 -116 -140 -253 -75 -137 -139 -252 -142 -255 -3
-3 -14 5 -23 18 l-19 24 -14 -28 -15 -28 -65 94 c-36 52 -240 348 -453 659
-212 311 -390 569 -395 573 -4 5 -21 -16 -37 -45z"/>
<path d="M7317 6518 c-90 -167 -163 -305 -161 -307 1 -1 124 68 273 154 171
99 268 161 264 169 -30 51 -196 286 -202 286 -5 0 -83 -136 -174 -302z"/>
<path d="M5500 6328 c-84 -156 -166 -306 -181 -333 l-28 -50 340 -199 c243
-142 349 -199 370 -198 31 1 370 191 366 204 -4 14 -699 858 -706 858 -4 0
-76 -127 -161 -282z"/>
<path d="M3500 4210 l0 -380 60 0 60 0 2 271 3 270 110 -268 110 -268 73 -3
72 -3 0 381 0 380 -60 0 -60 0 0 -257 c0 -141 -3 -253 -7 -249 -5 4 -54 119
-109 254 l-101 247 -77 3 -76 3 0 -381z"/>
<path d="M4410 4515 l0 -76 73 3 72 3 3 73 3 72 -76 0 -75 0 0 -75z"/>
<path d="M5700 4210 l0 -382 173 4 c160 3 176 5 228 29 32 16 66 40 79 59 26
36 37 114 26 174 -7 38 -53 88 -96 106 l-28 12 43 41 c99 96 80 247 -40 307
-46 23 -64 25 -217 28 l-168 4 0 -382z m341 232 c20 -22 29 -43 29 -67 0 -24
-9 -45 -29 -67 -29 -32 -31 -33 -125 -36 l-96 -4 0 107 0 107 96 -4 c94 -3 96
-4 125 -36z m-5 -303 c46 -22 58 -43 56 -98 -3 -70 -61 -101 -187 -101 l-85 0
0 110 0 110 87 0 c67 0 96 -5 129 -21z"/>
<path d="M7900 4210 l0 -380 60 0 60 0 0 83 c0 78 2 85 29 111 l28 27 89 -110
89 -110 79 -1 c75 0 78 1 64 18 -9 9 -68 76 -132 147 l-116 130 126 121 127
121 -54 6 c-109 13 -104 16 -219 -110 l-105 -115 -3 221 -2 221 -60 0 -60 0 0
-380z"/>
<path d="M6563 4375 c-29 -8 -71 -24 -93 -35 -43 -22 -43 -24 -3 -86 l14 -22
67 24 c115 41 220 27 242 -32 16 -42 13 -44 -63 -44 -149 0 -269 -47 -309
-120 -25 -46 -20 -125 10 -167 63 -88 243 -94 337 -12 l35 31 0 -41 0 -41 59
0 59 0 -2 208 c-2 179 -4 212 -21 245 -43 90 -189 130 -332 92z m226 -304 c21
-13 4 -67 -30 -95 -65 -55 -198 -62 -231 -12 -13 19 -9 63 7 76 29 24 91 39
165 39 41 1 81 -3 89 -8z"/>
<path d="M7408 4380 c-45 -14 -85 -48 -107 -92 l-21 -43 0 68 0 67 -60 0 -60
0 0 -275 0 -275 59 0 59 0 4 168 c3 147 5 171 24 202 45 77 135 104 191 56
l28 -24 3 -201 4 -201 60 0 60 0 -4 208 c-3 197 -4 209 -28 257 -39 77 -124
112 -212 85z"/>
<path d="M4300 4325 l0 -55 60 0 60 0 0 -165 0 -165 -60 0 -60 0 0 -55 0 -55
185 0 185 0 0 55 0 55 -65 0 -65 0 0 220 0 220 -120 0 -120 0 0 -55z"/>
<path d="M4970 4183 c0 -109 5 -215 10 -235 45 -161 258 -172 340 -18 l19 35
1 -67 0 -68 60 0 60 0 0 275 0 275 -59 0 -59 0 -4 -157 c-3 -140 -6 -163 -26
-205 -36 -72 -107 -105 -171 -79 -46 20 -51 45 -51 251 l0 190 -60 0 -60 0 0
-197z"/>
</g>
</svg>
