<?xml version="1.0" standalone="no"?>
<!DOCTYPE svg PUBLIC "-//W3C//DTD SVG 20010904//EN"
 "http://www.w3.org/TR/2001/REC-SVG-20010904/DTD/svg10.dtd">
<svg version="1.0" xmlns="http://www.w3.org/2000/svg"
 width="500.000000pt" height="500.000000pt" viewBox="0 0 500.000000 500.000000"
 preserveAspectRatio="xMidYMid meet">

<g transform="translate(0.000000,500.000000) scale(0.100000,-0.100000)"
fill="#000000" stroke="none">
<path d="M2460 3100 c0 -5 7 -10 15 -10 13 0 15 -31 15 -215 0 -137 4 -215 10
-215 6 0 10 78 10 215 0 184 2 215 15 215 8 0 15 5 15 10 0 6 -18 10 -40 10
-22 0 -40 -4 -40 -10z"/>
<path d="M1310 3055 c0 -8 12 -17 28 -21 94 -21 92 -12 92 -423 0 -213 -4
-360 -11 -392 -13 -59 -44 -97 -89 -105 -21 -5 -30 -12 -30 -25 0 -18 10 -19
145 -19 119 0 145 3 145 14 0 8 -13 17 -30 21 -32 7 -77 53 -85 88 -3 12 -4
177 -3 366 l3 344 105 -136 c86 -112 107 -134 119 -124 8 7 65 14 143 17 l129
5 -156 203 -157 202 -174 0 c-147 0 -174 -2 -174 -15z"/>
<path d="M2022 3053 c2 -9 16 -20 32 -24 76 -21 96 -70 96 -239 0 -121 1 -130
19 -130 18 0 19 10 23 143 4 166 15 199 79 226 75 31 50 41 -107 41 -131 0
-145 -2 -142 -17z"/>
<path d="M2740 3056 c0 -12 14 -16 63 -18 l62 -3 3 -187 2 -188 115 0 115 0 0
191 0 192 98 -5 c163 -8 192 -38 192 -197 0 -98 -1 -101 -31 -135 -16 -19 -39
-38 -49 -41 -18 -6 -18 -7 -2 -37 9 -17 34 -46 54 -65 27 -25 39 -47 47 -84
15 -69 13 -216 -3 -262 -30 -82 -73 -106 -206 -114 l-100 -6 0 126 0 127 -115
0 -114 0 -3 -122 -3 -123 -62 -3 c-48 -2 -63 -6 -63 -18 0 -14 42 -15 353 -12
342 3 354 4 411 27 72 29 128 78 157 137 32 67 25 167 -17 226 -38 55 -116
102 -229 137 l-89 28 64 12 c120 23 223 85 250 151 17 41 8 130 -16 162 -26
36 -88 75 -149 95 -74 24 -735 33 -735 9z"/>
<path d="M1812 2498 l1 -73 6 55 6 55 40 -52 c22 -28 43 -52 48 -52 4 -1 6 32
5 72 l-1 72 -6 -60 -6 -60 -44 58 c-24 31 -45 57 -47 57 -2 0 -3 -33 -2 -72z"/>
<path d="M2478 2564 c-5 -4 -8 -36 -8 -71 l0 -63 43 0 c61 0 67 8 63 68 -2 29
-6 55 -9 58 -9 10 -82 16 -89 8z m82 -33 c0 -20 -18 -31 -51 -31 -14 0 -19 7
-19 25 0 22 4 25 35 25 28 0 35 -4 35 -19z m7 -57 c7 -20 -13 -34 -49 -34 -23
0 -28 4 -28 25 0 22 4 25 35 25 23 0 38 -6 42 -16z"/>
<path d="M2692 2504 c-18 -37 -31 -68 -28 -71 2 -3 9 5 16 16 8 15 20 21 45
21 25 0 37 -6 45 -21 7 -11 14 -18 17 -15 5 5 -52 136 -59 136 -2 0 -18 -30
-36 -66z m53 6 l16 -30 -31 0 c-16 0 -30 2 -30 5 0 7 23 55 26 55 2 0 10 -13
19 -30z"/>
<path d="M3103 2500 c0 -41 2 -65 4 -53 2 12 11 27 20 35 13 11 20 8 43 -20
38 -45 48 -40 11 6 l-30 39 27 26 c15 15 21 27 15 27 -6 0 -25 -16 -42 -35
-17 -19 -33 -35 -35 -35 -3 0 -7 19 -9 43 -2 23 -4 8 -4 -33z"/>
<path d="M2020 2495 c0 -37 4 -65 10 -65 6 0 10 28 10 65 0 37 -4 65 -10 65
-6 0 -10 -28 -10 -65z"/>
<path d="M2140 2517 c0 -54 22 -87 59 -87 40 0 51 17 49 80 l-1 55 -6 -54 c-7
-60 -28 -84 -58 -65 -13 8 -19 27 -21 63 -4 62 -22 69 -22 8z"/>
<path d="M2880 2495 c0 -77 18 -88 22 -14 l3 50 39 -50 c21 -28 42 -51 47 -51
5 0 9 29 9 65 0 37 -4 65 -10 65 -5 0 -10 -23 -10 -51 l0 -52 -41 52 c-22 28
-45 51 -50 51 -5 0 -9 -29 -9 -65z"/>
<path d="M1917 2336 c4 -7 55 -75 113 -149 89 -116 109 -136 133 -137 l27 0 0
150 0 150 -140 0 c-117 0 -140 -2 -133 -14z"/>
<path d="M2490 2110 c0 -207 -2 -240 -15 -240 -8 0 -15 -4 -15 -10 0 -5 18
-10 40 -10 22 0 40 5 40 10 0 6 -7 10 -15 10 -13 0 -15 33 -15 240 0 153 -4
240 -10 240 -6 0 -10 -87 -10 -240z"/>
</g>
</svg>
