<?xml version="1.0" standalone="no"?>
<!DOCTYPE svg PUBLIC "-//W3C//DTD SVG 20010904//EN"
 "http://www.w3.org/TR/2001/REC-SVG-20010904/DTD/svg10.dtd">
<svg version="1.0" xmlns="http://www.w3.org/2000/svg"
 width="1200.000000pt" height="1200.000000pt" viewBox="0 0 1200.000000 1200.000000"
 preserveAspectRatio="xMidYMid meet">

<g transform="translate(0.000000,1200.000000) scale(0.100000,-0.100000)"
fill="#000000" stroke="none">
<path d="M0 6000 l0 -6000 6000 0 6000 0 0 6000 0 6000 -6000 0 -6000 0 0
-6000z m8420 1585 c0 -394 -6 -380 113 -267 100 94 106 103 107 139 0 35 -22
56 -72 68 -16 4 -28 13 -28 21 0 11 30 14 160 14 128 0 160 -3 160 -14 0 -7
-21 -21 -47 -31 -46 -18 -203 -156 -203 -179 0 -21 245 -419 268 -434 12 -8
22 -21 22 -28 0 -11 -30 -14 -160 -14 -130 0 -160 3 -160 14 0 7 9 16 20 19
11 3 20 11 20 19 0 7 -35 76 -78 153 -59 106 -84 141 -100 143 -22 3 -22 2
-22 -137 0 -128 2 -143 20 -161 11 -11 29 -20 40 -20 11 0 20 -7 20 -15 0 -13
-27 -15 -185 -15 -151 0 -185 3 -185 14 0 8 15 17 35 20 26 5 39 14 45 32 13
34 13 865 0 899 -6 15 -24 32 -45 41 -58 24 -41 34 58 35 50 0 112 4 137 8 25
5 48 9 53 10 4 0 7 -150 7 -334z m-4036 311 c18 -8 41 -24 50 -37 18 -26 21
-81 6 -110 -29 -53 -147 -67 -198 -24 -103 86 13 225 142 171z m-743 -399
l259 -319 0 259 c0 306 -3 319 -82 341 -27 7 -48 19 -48 25 0 15 262 15 267 0
2 -5 -15 -17 -37 -26 -26 -10 -43 -25 -50 -42 -6 -16 -10 -190 -10 -451 l0
-424 -39 0 -40 0 -277 353 c-152 193 -283 359 -291 367 -12 13 -14 -30 -11
-300 3 -362 3 -361 83 -382 25 -7 45 -18 45 -25 0 -10 -30 -13 -130 -13 -100
0 -130 3 -130 13 0 7 15 18 33 25 60 22 61 29 65 432 4 421 1 439 -60 453 -21
5 -38 14 -38 20 0 9 35 12 116 12 l117 0 258 -318z m2470 300 c66 -20 132 -65
153 -106 31 -58 31 -106 1 -167 -32 -66 -86 -108 -176 -140 l-60 -21 52 -7
c111 -15 218 -76 254 -146 62 -119 -6 -265 -150 -321 -57 -22 -74 -23 -357
-27 -266 -3 -298 -2 -298 12 0 11 9 16 29 16 16 0 39 9 52 19 l23 19 0 393 c0
217 -3 406 -7 421 -6 22 -16 30 -52 39 -41 10 -52 19 -41 30 2 2 121 4 263 3
207 -1 269 -4 314 -17z m800 -228 c63 -14 124 -65 139 -117 5 -21 10 -148 10
-283 0 -213 2 -248 16 -260 12 -10 20 -10 35 -1 25 16 39 15 39 -2 0 -21 -68
-49 -130 -54 -76 -6 -124 15 -141 61 l-13 36 -48 -44 c-53 -48 -103 -62 -180
-52 -96 13 -154 104 -134 211 13 70 74 114 226 165 36 11 80 30 98 41 l32 20
0 99 c0 114 -15 145 -76 157 -31 6 -114 -9 -114 -20 0 -2 16 -20 35 -39 46
-46 48 -92 6 -139 -25 -28 -36 -33 -75 -33 -36 0 -51 6 -73 28 -36 35 -39 101
-7 144 55 73 219 111 355 82z m920 0 c19 -7 45 -21 58 -33 50 -44 55 -72 61
-354 5 -246 6 -265 24 -278 11 -8 28 -14 38 -14 10 0 18 -7 18 -15 0 -13 -26
-15 -175 -15 -143 0 -175 3 -175 14 0 8 11 17 25 20 15 4 30 18 35 32 14 35
13 503 -1 542 -32 93 -177 43 -197 -68 -4 -25 -7 -141 -7 -257 1 -191 3 -215
20 -233 10 -11 26 -20 37 -20 10 0 18 -7 18 -15 0 -13 -27 -15 -180 -15 -141
0 -180 3 -180 13 0 7 15 17 32 22 54 16 58 35 58 300 0 278 -5 308 -55 326
-19 7 -35 19 -35 26 0 10 24 13 99 13 54 0 118 3 143 6 l45 6 -2 -51 -2 -52
36 34 c20 19 47 40 61 48 56 29 145 36 201 18z m-3396 -320 l1 -322 23 -18
c13 -11 32 -19 42 -19 10 0 19 -7 19 -15 0 -13 -27 -15 -185 -15 -145 0 -185
3 -185 13 0 7 15 17 32 22 54 16 58 34 57 305 0 279 -5 309 -56 324 -18 5 -33
15 -33 22 0 10 28 14 118 17 64 1 128 4 142 5 l25 2 0 -321z m477 5 l3 -316
25 -20 c48 -39 128 -6 161 65 16 37 19 68 19 255 0 243 -7 275 -59 287 -17 4
-31 13 -31 21 0 11 20 14 99 14 54 0 119 3 145 6 l46 7 0 -317 0 -317 25 -24
c13 -14 31 -25 40 -25 8 0 15 -7 15 -15 0 -12 -18 -15 -97 -15 -54 -1 -117 -5
-140 -9 l-43 -8 0 56 0 56 -26 -33 c-38 -48 -97 -74 -179 -79 -90 -6 -148 21
-179 82 -19 37 -21 63 -26 303 -5 262 -5 264 -29 283 -13 10 -29 19 -37 19 -8
0 -14 7 -14 15 0 12 22 15 113 18 61 1 124 4 139 5 l27 2 3 -316z m1988 -1139
l0 -115 -900 0 -900 0 0 115 0 115 900 0 900 0 0 -115z m-693 -1007 c5 -7 32
-73 59 -145 l49 -133 87 0 c103 0 90 14 158 -172 l43 -117 91 -3 91 -3 60
-158 c46 -123 57 -162 48 -175 -9 -16 -76 -17 -893 -17 -817 0 -884 1 -893 17
-9 13 2 52 48 175 l60 158 91 3 91 3 43 117 c68 186 55 172 158 172 l87 0 49
133 c27 72 54 138 59 145 7 9 61 12 207 12 146 0 200 -3 207 -12z"/>
<path d="M5890 7778 c-13 -7 -27 -24 -31 -38 -4 -14 -7 -103 -8 -199 l-1 -173
65 4 c54 3 69 9 94 32 37 36 55 102 54 197 -2 86 -20 140 -56 164 -35 22 -87
28 -117 13z"/>
<path d="M5852 7135 c4 -241 3 -240 96 -240 111 1 169 65 179 198 12 167 -55
246 -210 247 l-68 0 3 -205z"/>
<path d="M6799 7206 c-72 -57 -96 -88 -104 -136 -8 -47 9 -106 35 -120 31 -17
77 -11 105 13 26 22 26 23 23 155 l-3 132 -56 -44z"/>
<path d="M5807 4942 c-21 -55 -37 -102 -37 -105 0 -4 104 -7 230 -7 127 0 230
3 230 7 0 3 -16 50 -37 105 l-36 98 -157 0 -157 0 -36 -98z"/>
<path d="M5549 4733 c-25 -64 -69 -185 -69 -189 0 -7 460 -4 460 4 0 4 -16 53
-37 110 l-37 102 -153 0 -153 0 -11 -27z"/>
<path d="M5950 4754 c0 -17 43 -124 50 -124 7 0 50 107 50 124 0 3 -22 6 -50
6 -27 0 -50 -3 -50 -6z"/>
<path d="M6097 4658 c-21 -57 -37 -106 -37 -110 0 -5 104 -8 231 -8 l230 0 -7
23 c-4 12 -21 60 -39 107 l-32 85 -154 3 -155 2 -37 -102z"/>
<path d="M5265 4458 c-3 -7 -20 -53 -38 -103 l-34 -90 225 -3 c124 -1 227 0
230 3 3 2 -12 50 -33 105 l-38 100 -154 0 c-114 0 -155 -3 -158 -12z"/>
<path d="M5660 4465 c0 -2 8 -26 18 -52 11 -26 22 -57 26 -68 6 -16 12 -8 32
44 13 35 24 67 24 72 0 5 -22 9 -50 9 -27 0 -50 -2 -50 -5z"/>
<path d="M5811 4377 c-18 -50 -36 -98 -38 -104 -4 -10 45 -13 227 -13 182 0
231 3 227 13 -2 6 -20 54 -38 104 l-34 93 -155 0 -155 0 -34 -93z"/>
<path d="M6240 4461 c0 -5 11 -37 24 -72 20 -52 26 -60 32 -44 4 11 15 42 26
68 10 26 18 50 18 52 0 3 -22 5 -50 5 -27 0 -50 -4 -50 -9z"/>
<path d="M6385 4370 c-21 -55 -36 -103 -33 -105 3 -3 106 -4 230 -3 l225 3
-37 100 -38 100 -155 3 -154 2 -38 -100z"/>
</g>
</svg>
