<?xml version="1.0" standalone="no"?>
<!DOCTYPE svg PUBLIC "-//W3C//DTD SVG 20010904//EN"
 "http://www.w3.org/TR/2001/REC-SVG-20010904/DTD/svg10.dtd">
<svg version="1.0" xmlns="http://www.w3.org/2000/svg"
 width="1200.000000pt" height="1200.000000pt" viewBox="0 0 1200.000000 1200.000000"
 preserveAspectRatio="xMidYMid meet">

<g transform="translate(0.000000,1200.000000) scale(0.100000,-0.100000)"
fill="#000000" stroke="none">
<path d="M3510 6225 l0 -595 60 0 60 0 -1 403 c0 221 -3 432 -8 470 -4 37 -3
66 1 65 5 -2 30 -42 56 -90 26 -48 171 -263 322 -477 265 -376 276 -390 308
-391 25 0 32 4 33 20 0 11 1 274 1 585 0 311 -1 572 -1 580 -1 12 -15 15 -62
15 l-61 0 5 -442 c2 -244 7 -453 12 -465 17 -52 -15 -17 -61 65 -27 49 -173
260 -324 470 -264 366 -276 381 -307 382 l-33 0 0 -595z"/>
<path d="M4819 6805 c-49 -27 -61 -103 -21 -138 47 -41 125 -26 148 29 31 75
-55 150 -127 109z"/>
<path d="M6640 6815 c-14 -2 -64 -7 -112 -10 l-88 -7 0 -578 0 -577 28 -6 c15
-3 89 -9 162 -12 270 -13 434 50 512 197 20 37 23 58 23 143 0 91 -2 104 -28
147 -34 59 -80 94 -160 123 l-62 23 47 20 c98 43 161 128 174 235 16 138 -70
252 -218 287 -46 11 -236 21 -278 15z m260 -145 c150 -84 121 -274 -53 -356
-45 -21 -67 -24 -164 -24 l-113 0 0 198 c0 109 3 202 8 206 4 4 68 6 142 4
122 -3 139 -5 180 -28z m-29 -516 c104 -29 159 -96 159 -193 0 -89 -38 -148
-123 -193 -35 -19 -62 -23 -165 -26 -67 -2 -134 -1 -147 2 l-25 6 0 210 0 210
122 0 c81 0 141 -5 179 -16z"/>
<path d="M9590 6220 l0 -590 65 0 65 0 0 190 0 190 43 0 43 0 139 -190 139
-190 78 0 c43 0 78 1 78 3 0 16 -287 385 -319 410 l-42 32 45 40 c35 32 240
292 270 343 5 9 -10 12 -66 12 l-73 -1 -130 -179 c-123 -170 -153 -200 -196
-200 -5 0 -9 162 -9 360 l0 360 -65 0 -65 0 0 -590z"/>
<path d="M8830 6477 c-67 -16 -106 -36 -149 -76 -35 -33 -51 -39 -51 -18 0 6
-5 29 -11 50 -10 36 -12 37 -54 37 l-45 0 0 -420 0 -420 65 0 64 0 3 298 3
299 30 43 c47 68 95 94 179 98 94 4 132 -15 166 -83 25 -50 25 -53 28 -352 l3
-303 65 0 65 0 -3 328 c-3 310 -5 330 -26 383 -38 94 -97 134 -213 143 -36 3
-88 0 -119 -7z"/>
<path d="M7760 6471 c-74 -11 -137 -29 -182 -52 l-38 -19 17 -43 c9 -23 17
-44 19 -46 1 -1 31 7 66 19 89 32 239 38 288 13 52 -27 71 -73 68 -160 l-3
-73 -115 -4 c-134 -6 -207 -19 -271 -52 -86 -43 -124 -113 -117 -213 11 -153
141 -242 307 -212 78 15 110 31 167 83 l43 40 18 -61 18 -61 49 0 c42 0 47 2
40 18 -5 9 -10 161 -10 338 -1 298 -3 323 -21 366 -21 46 -66 88 -115 107 -38
14 -163 21 -228 12z m240 -528 c0 -77 -18 -115 -72 -155 -101 -75 -251 -60
-294 30 -29 63 -6 125 61 160 47 24 82 30 198 31 l107 1 0 -67z"/>
<path d="M4800 6050 l0 -420 65 0 65 0 0 420 0 420 -65 0 -65 0 0 -420z"/>
<path d="M5350 6177 c0 -169 5 -318 11 -352 27 -146 100 -207 249 -209 107 -2
156 18 227 91 l62 63 11 -38 c5 -21 13 -52 16 -70 6 -30 9 -32 51 -32 44 0 45
1 38 28 -3 15 -9 204 -12 420 l-5 392 -62 0 -61 0 1 -277 c0 -255 -1 -281 -19
-318 -43 -90 -122 -145 -208 -145 -70 0 -115 24 -142 74 -21 39 -22 54 -25
354 l-3 312 -65 0 -64 0 0 -293z"/>
</g>
</svg>
